# xmcd
#
# Track frame offsets:
#	150
#	17960
#	34342
#	48504
#	69001
#	85273
#	101814
#	114104
#	129961
#	142933
#	157128
#	170662
#	185490
#	204097
#
# Disc length: 2941 seconds
#
# Revision: 1
# Processed by: cddbd v1.5.1PL2 Copyright (c) Steve Scherf et al.
# Submitted via: audiograbber 1.83.01
#
DISCID=b70b7b0e
DTITLE=Star Disc - SC124
DYEAR=1900
DGENRE=Karaoke
TTITLE0=Chesney, Kenny - Woman With You, The
TTITLE1=Twain, Shania and Billy Currington - Party For Two
TTITLE2=Paisley, Brad - Mud On The Tires
TTITLE3=McGraw, Tim - Back When
TTITLE4=McEntire, Reba - He Gets That From Me
TTITLE5=Green, Pat - Don't Break My Heart Again
TTITLE6=Gracin, Josh - Nothin' To Lose
TTITLE7=Buffett, Jimmy and Martina McBride - Trip Around The Sun
TTITLE8=Rimes, LeAnn - Nothin' Bout Love Makes Sense
TTITLE9=Jenkins - Getaway Car
TTITLE10=Britt, Catherine - Upside Of Being Down, The
TTITLE11=Tritt, Travis and John Mellencamp - What Say You
TTITLE12=Warren Brothers - Sell A Lot Of Beer
TTITLE13=Dean, Billy - Let Them Be Little
EXTD=
EXTT0=
EXTT1=
EXTT2=
EXTT3=
EXTT4=
EXTT5=
EXTT6=
EXTT7=
EXTT8=
EXTT9=
EXTT10=
EXTT11=
EXTT12=
EXTT13=
PLAYORDER=
